<svg width="48" height="48" viewBox="0 0 48 48" fill="none" xmlns="http://www.w3.org/2000/svg">
<path d="M38.5928 13.5108C38.5928 13.8542 38.5251 14.1942 38.3938 14.5114C38.2625 14.8286 38.0696 15.1168 37.8271 15.3596C37.5843 15.6024 37.296 15.795 36.9786 15.9264C36.6615 16.0578 36.3216 16.1254 35.9783 16.1254C35.6349 16.1254 35.295 16.0578 34.9776 15.9264C34.6605 15.795 34.3722 15.6024 34.1294 15.3596C33.8866 15.1168 33.694 14.8286 33.5627 14.5114C33.4312 14.1942 33.3637 13.8542 33.3637 13.5108C33.3637 12.8174 33.639 12.1524 34.1294 11.6621C34.6199 11.1717 35.2848 10.8963 35.9783 10.8963C36.6717 10.8963 37.3367 11.1717 37.8271 11.6621C38.3173 12.1524 38.5928 12.8174 38.5928 13.5108ZM46.894 25.3132V25.3471L46.7444 34.8229C46.7063 38.2402 45.3318 41.507 42.9154 43.9237C40.4993 46.3406 37.2328 47.7157 33.8154 47.7546L24.3057 47.9015H24.2718L14.7961 47.7518C11.3787 47.7137 8.11197 46.3392 5.69511 43.9231C3.27823 41.5067 1.9032 38.2402 1.86431 34.8229L1.71748 25.3132V25.2793L1.86713 15.8035C1.90528 12.3861 3.27958 9.11943 5.69593 6.70258C8.11228 4.28569 11.3787 2.91066 14.7961 2.87178L24.3057 2.72495H24.3396L33.8154 2.87461C37.2328 2.91275 40.4996 4.28705 42.9162 6.7034C45.3332 9.11974 46.7082 12.3861 46.7472 15.8035L46.894 25.3132ZM42.687 25.3132L42.5401 15.8685C42.5136 13.5455 41.579 11.3251 39.9366 9.68245C38.2938 8.03977 36.0734 7.10524 33.7505 7.07884L24.3057 6.93202L14.861 7.07884C12.5381 7.10524 10.3177 8.03977 8.67498 9.68245C7.03231 11.3251 6.09778 13.5455 6.07138 15.8685L5.92455 25.3132L6.07138 34.7579C6.09778 37.0808 7.03231 39.3013 8.67498 40.944C10.3177 42.5867 12.5381 43.521 14.861 43.5476L24.3057 43.6944L33.7505 43.5476C36.0734 43.521 38.2938 42.5867 39.9366 40.944C41.579 39.3013 42.5136 37.0808 42.5401 34.7579L42.687 25.3132ZM35.9048 25.3132C35.9048 28.3895 34.6828 31.3398 32.5076 33.515C30.3323 35.6903 27.382 36.9123 24.3057 36.9123C21.2295 36.9123 18.2792 35.6903 16.1039 33.515C13.9287 31.3398 12.7067 28.3895 12.7067 25.3132C12.7067 22.2369 13.9287 19.2867 16.1039 17.1114C18.2792 14.9362 21.2295 13.7141 24.3057 13.7141C27.382 13.7141 30.3323 14.9362 32.5076 17.1114C34.6828 19.2867 35.9048 22.2369 35.9048 25.3132ZM31.6978 25.3132C31.6978 23.3527 30.9191 21.4725 29.5327 20.0862C28.1464 18.7 26.2662 17.9212 24.3057 17.9212C22.3452 17.9212 20.4651 18.7 19.0788 20.0862C17.6925 21.4725 16.9137 23.3527 16.9137 25.3132C16.9137 27.2737 17.6925 29.1538 19.0788 30.5401C20.4651 31.9265 22.3452 32.7052 24.3057 32.7052C26.2662 32.7052 28.1464 31.9265 29.5327 30.5401C30.9191 29.1538 31.6978 27.2737 31.6978 25.3132Z" fill="#fff"/>
</svg>
