<svg width="48" height="48" viewBox="0 0 48 48" fill="none" xmlns="http://www.w3.org/2000/svg">
<path fill-rule="evenodd" clip-rule="evenodd" d="M10.5003 9.75034C10.5003 9.33634 10.1643 9.00034 9.75033 9.00034H3.75031C3.33631 9.00034 3.00031 9.33634 3.00031 9.75034C3.00031 9.75034 2.99805 17.0134 5.86531 24.2756C8.77532 31.6482 14.6096 39.0004 26.2504 39.0004C26.6644 39.0004 27.0004 38.6644 27.0004 38.2504V27.7751C32.6284 28.1464 37.1307 32.6629 37.4787 38.2969C37.5034 38.6922 37.8312 39.0004 38.2272 39.0004H44.2504C44.6644 39.0004 45.0004 38.6644 45.0004 38.2504C45.0004 32.3337 42.0147 27.1076 37.4697 24.0004C42.0147 20.8931 45.0004 15.6671 45.0004 9.75034C45.0004 9.33634 44.6644 9.00034 44.2504 9.00034H38.2272C37.8312 9.00034 37.5034 9.30859 37.4787 9.70384C37.1307 15.3379 32.6284 19.8544 27.0004 20.2256V9.75034C27.0004 9.33634 26.6644 9.00034 26.2504 9.00034H20.2504C19.8364 9.00034 19.5004 9.33634 19.5004 9.75034V28.2746C18.2914 27.8576 16.0121 26.7484 14.0606 23.9606C12.1046 21.1661 10.5003 16.7359 10.5003 9.75034ZM9.00632 10.5003C9.15032 19.3196 11.8323 24.1429 14.4701 26.7806C17.3006 29.6112 20.1446 29.9929 20.1446 29.9929C20.3599 30.0237 20.5774 29.9592 20.7416 29.8167C20.9059 29.6749 21.0004 29.4679 21.0004 29.2504V10.5003H25.5004V21.0004C25.5004 21.4144 25.8364 21.7504 26.2504 21.7504C32.7799 21.7504 38.1694 16.8311 38.9127 10.5003H43.4832C43.2252 15.9836 40.1577 20.7379 35.6899 23.3531C35.4597 23.4874 35.3187 23.7341 35.3187 24.0004C35.3187 24.2666 35.4597 24.5134 35.6899 24.6476C40.1577 27.2629 43.2252 32.0172 43.4832 37.5004H38.9127C38.1694 31.1697 32.7799 26.2504 26.2504 26.2504C25.8364 26.2504 25.5004 26.5864 25.5004 27.0004V37.4892C15.1398 37.1794 9.91233 30.4429 7.26032 23.7251C5.04181 18.1046 4.60681 12.4841 4.52131 10.5003H9.00632Z" fill="#fff"/>
</svg>
