<?xml version="1.0" standalone="no"?>
<!DOCTYPE svg PUBLIC "-//W3C//DTD SVG 20010904//EN"
 "http://www.w3.org/TR/2001/REC-SVG-20010904/DTD/svg10.dtd">
<svg version="1.0" xmlns="http://www.w3.org/2000/svg"
 width="512.000000pt" height="512.000000pt" viewBox="0 0 512.000000 512.000000"
 preserveAspectRatio="xMidYMid meet">
<metadata>
Created by potrace 1.14, written by Peter Selinger 2001-2017
</metadata>
<g transform="translate(0.000000,512.000000) scale(0.100000,-0.100000)"
fill="#000000" stroke="none">
<path d="M967 5113 c-4 -3 -7 -75 -7 -160 l0 -153 320 0 320 0 -2 -161 -3
-160 -317 0 -318 1 0 -160 0 -160 -160 0 -160 0 0 168 c-1 92 -1 236 0 320 l1
152 -161 0 -161 0 1 -152 c1 -84 1 -228 0 -320 l0 -168 -160 0 -160 0 2 -162
3 -163 160 -5 160 -6 -156 -2 -156 -2 -6 -227 c-4 -124 -7 -264 -7 -310 l0
-83 160 0 160 0 0 -160 0 -160 -159 0 -159 0 1 -1433 2 -1434 239 -6 c132 -4
275 -7 318 -7 l78 0 0 160 0 160 160 0 160 0 0 160 0 160 160 0 160 0 0 -160
0 -159 -157 -3 -158 -3 -3 -152 -3 -153 239 0 c131 0 347 -3 480 -7 l242 -6 0
161 0 162 160 0 160 0 0 -157 0 -158 1440 -1 1440 -1 -2 161 -3 161 -160 5
-160 6 158 2 157 2 0 310 0 310 -312 -2 -313 -3 -3 -158 -3 -157 -159 0 -160
0 0 160 0 160 160 0 160 0 0 160 0 160 320 0 320 0 -4 717 c-2 395 -5 827 -5
961 l-1 243 -152 -2 -153 -1 -3 161 -2 161 160 0 160 0 0 398 c0 219 -3 507
-7 640 l-6 241 -149 3 -150 3 -1 155 -2 155 -635 -3 c-349 -1 -710 -2 -803 -2
l-168 0 3 -152 3 -153 150 -2 c83 -1 225 -2 318 -3 l167 0 0 -320 0 -320 -162
-2 -163 -3 -2 -153 -2 -153 -151 0 -151 0 -2 153 -2 153 -322 3 -323 2 0 160
0 160 160 0 160 0 0 160 0 160 -165 0 -164 0 -4 158 -3 157 -2 -158 -2 -158
-147 3 -148 3 -3 158 -3 157 -159 0 -160 0 0 -160 0 -160 -160 0 -159 0 -3
158 -3 157 -311 3 c-171 1 -313 -1 -317 -5z m970 -540 c-1 -43 -3 -10 -3 72 0
83 2 118 3 78 2 -40 2 -107 0 -150z m2538 67 l0 -150 -155 0 -155 0 3 150 3
150 152 0 152 0 0 -150z m-3922 -147 c-40 -2 -106 -2 -145 0 -40 1 -8 3 72 3
80 0 112 -2 73 -3z m1687 -173 l0 -160 -160 0 -160 0 0 158 c0 87 2 161 4 163
2 2 74 3 160 1 l156 -3 0 -159z m-641 -342 l1 -138 -160 0 -160 0 -2 -161 -3
-161 -155 1 c-85 1 -155 3 -157 4 -1 2 -3 72 -4 157 l-1 155 161 3 161 2 0
160 0 160 150 0 150 0 2 153 2 152 7 -175 c3 -96 7 -237 8 -312z m-731 -155
c-43 -2 -113 -2 -155 0 -43 1 -8 3 77 3 85 0 120 -2 78 -3z m905 0 l-152 -4
-4 -152 -3 -152 -2 158 -2 157 158 -2 157 -2 -152 -3z m2695 -145 l-2 -153 -3
147 -4 147 -152 4 -152 3 158 2 157 2 -2 -152z m-3811 -400 c-1 -46 -3 -9 -3
82 0 91 2 128 3 83 2 -46 2 -120 0 -165z m1250 10 c-1 -46 -3 -11 -3 77 0 88
2 125 3 83 2 -42 2 -114 0 -160z m-307 -248 c0 -124 -3 -160 -13 -160 -7 0
-20 19 -28 43 l-16 42 -129 2 -129 1 -3 116 -3 116 161 0 160 0 0 -160z m1280
45 l0 -115 -320 0 -320 0 0 115 0 115 320 0 320 0 0 -115z m960 0 l0 -115
-320 0 -320 0 0 115 0 115 320 0 320 0 0 -115z m-3280 -162 c0 -5 -5 -25 -11
-46 l-10 -39 -90 4 c-97 3 -93 -1 -68 66 8 20 15 22 94 22 47 0 85 -3 85 -7z
m440 -5 c0 -7 -9 -49 -18 -93 l-18 -80 -43 -3 -43 -3 2 38 c3 62 3 63 -39 63
l-38 0 10 45 10 45 89 0 c64 0 88 -3 88 -12z m249 -15 c-2 -62 -13 -78 -54
-84 l-40 -6 38 -2 c22 0 37 -6 37 -13 0 -46 -81 -422 -92 -429 -17 -11 -59
-11 -77 0 -9 6 -12 21 -9 44 5 45 -8 39 -16 -7 -4 -23 -13 -36 -27 -39 -27 -7
-49 1 -49 19 0 14 107 505 115 532 3 8 30 12 90 12 l85 0 -1 -27z m257 5 c-3
-13 -6 -34 -6 -47 0 -21 -3 -23 -30 -18 -16 4 -32 2 -35 -3 -4 -6 18 -10 56
-10 l61 0 -4 -56 -5 -55 36 3 c23 2 37 8 38 18 1 8 4 32 8 53 l6 37 56 -7 c37
-4 54 -3 50 4 -4 6 -27 13 -52 16 -25 2 -47 6 -49 8 -2 2 -1 21 2 42 l4 37 89
0 89 0 0 -32 c0 -58 -10 -78 -39 -79 l-26 -2 28 -4 c15 -2 27 -6 27 -8 0 -13
-41 -375 -46 -402 -4 -29 -9 -33 -35 -33 l-31 0 8 63 c11 87 11 110 -1 114 -6
2 -10 -22 -10 -60 -1 -88 -10 -114 -41 -121 -15 -4 -40 -4 -56 -1 l-30 7 7 71
c4 40 9 75 12 80 2 4 19 7 36 8 50 1 3 17 -52 18 l-44 1 7 60 7 60 -35 0 c-37
0 -35 3 -52 -94 l-7 -38 -56 5 c-31 3 -65 2 -76 -3 -14 -6 3 -9 54 -9 l74 -1
-7 -65 c-8 -83 -12 -92 -42 -99 -39 -10 -74 3 -75 28 0 21 0 21 -11 -1 -11
-22 -25 -28 -58 -23 -23 3 -23 3 -9 85 11 61 18 79 34 85 18 8 18 9 2 9 -15 1
-17 7 -13 29 3 15 17 90 31 167 14 77 28 150 30 163 5 21 10 22 96 22 90 0 91
0 85 -22z m822 -25 l-3 -48 -126 -3 -126 -3 -7 -37 c-12 -73 -12 -72 54 -72
l60 0 0 -40 c0 -22 5 -40 10 -40 6 0 10 18 10 40 l0 40 60 0 60 0 0 -55 0 -55
-135 0 -135 0 0 -44 c0 -24 -3 -51 -6 -60 -5 -13 3 -16 47 -16 77 0 159 -11
159 -21 0 -5 -13 -9 -29 -9 -37 0 -61 -23 -61 -60 0 -20 -6 -29 -22 -34 -30
-8 -127 -8 -166 0 -30 6 -31 9 -34 63 l-3 56 -35 3 c-19 2 -38 7 -42 10 -7 7
4 148 18 230 5 30 7 32 49 32 24 0 47 5 50 10 4 6 -13 10 -44 10 l-51 0 6 63
c3 34 7 68 10 75 2 9 55 12 219 12 l216 0 -3 -47z m506 31 c11 -30 6 -72 -10
-78 -9 -3 -67 -6 -130 -6 l-114 0 0 -48 0 -49 -47 8 c-80 13 -92 8 -23 -9 l65
-17 3 -117 3 -118 134 0 135 0 0 -54 c0 -45 -3 -54 -20 -59 -39 -10 -59 3 -69
47 l-9 41 -1 -42 c-1 -40 -2 -41 -42 -48 -48 -8 -149 2 -149 16 0 14 -64 10
-98 -6 -19 -10 -41 -13 -58 -9 -26 7 -26 8 -20 67 3 33 6 91 6 128 0 63 2 69
21 69 11 0 18 4 14 10 -3 5 -13 6 -22 3 -14 -6 -16 3 -10 78 4 46 7 112 7 147
l0 62 214 0 c186 0 215 -2 220 -16z m141 -31 c3 -27 8 -63 11 -80 5 -35 -4
-40 -53 -27 -21 6 -23 12 -23 80 l0 74 29 0 c28 0 30 -3 36 -47z m369 10 c3
-21 8 -66 12 -100 l6 -63 -31 0 c-24 0 -31 -4 -31 -20 0 -16 -7 -20 -32 -21
-27 0 -29 -2 -13 -8 11 -5 26 -6 33 -4 6 3 12 0 12 -6 0 -6 16 -11 35 -11 29
0 35 -4 36 -22 0 -13 6 -78 13 -145 l12 -122 -31 -5 c-16 -3 -44 -2 -60 3 -17
4 -39 5 -50 1 -28 -10 -55 0 -55 20 0 9 -3 38 -6 64 l-7 46 59 2 59 2 -57 3
c-55 4 -58 5 -58 31 0 57 -10 72 -46 72 -31 0 -34 -3 -34 -30 0 -29 0 -29 -67
-32 l-68 -3 -6 -65 c-9 -110 -32 -146 -42 -67 -4 23 -7 110 -9 192 l-3 150 31
3 c19 2 36 -3 44 -12 7 -10 27 -16 49 -15 l36 1 -32 10 c-37 12 -39 17 -48
116 l-7 72 175 0 175 0 6 -37z m506 29 c0 -4 16 -97 35 -207 19 -110 35 -203
35 -207 0 -10 -66 -10 -139 -1 -40 5 -55 11 -59 25 -3 13 -14 18 -39 18 l-36
0 7 -62 c4 -35 10 -75 13 -89 4 -21 0 -27 -16 -32 -12 -3 -34 -2 -49 2 -15 5
-37 4 -50 0 -29 -11 -82 0 -82 17 0 7 -11 118 -25 246 -14 128 -25 248 -25
266 l0 32 215 0 c118 0 215 -3 215 -8z m303 -12 c3 -11 17 -24 31 -30 14 -5
26 -11 26 -14 0 -2 3 -12 6 -21 6 -14 0 -16 -39 -14 -26 2 -47 1 -48 -1 -1 -3
2 -29 6 -57 l7 -53 68 0 c75 0 80 -5 80 -77 l0 -33 -60 0 c-33 0 -60 -3 -60
-7 1 -5 11 -58 24 -120 l23 -112 -44 -7 c-42 -6 -140 0 -150 10 -2 2 -24 116
-48 253 -24 136 -46 260 -49 276 l-5 27 113 0 c105 0 114 -2 119 -20z m214
-25 c12 -52 8 -55 -72 -55 -49 0 -53 2 -65 30 -7 17 -22 33 -36 36 -12 3 -25
12 -28 20 -4 11 12 14 93 14 l98 0 10 -45z m402 6 c6 -21 8 -46 5 -55 -5 -12
49 -219 73 -283 4 -10 -17 -13 -83 -13 -49 0 -94 4 -100 8 -6 4 -27 69 -47
145 -37 139 -56 191 -57 155 0 -15 -9 -18 -50 -18 -54 0 -62 7 -75 68 l-7 32
165 0 164 0 12 -39z m105 12 c3 -16 8 -38 12 -50 6 -21 3 -23 -35 -23 -38 0
-43 3 -57 35 -23 57 -20 65 30 65 39 0 44 -3 50 -27z m-4104 -33 c0 -5 -16
-10 -35 -10 -29 0 -35 -4 -35 -21 0 -21 -1 -21 -20 4 -11 14 -20 28 -20 31 0
3 25 6 55 6 30 0 55 -4 55 -10z m-183 -72 c-4 -18 -9 -43 -13 -55 l-6 -23 194
-2 195 -3 -38 -169 c-21 -93 -41 -171 -44 -174 -9 -9 -122 -15 -159 -8 l-34 6
29 113 c16 61 29 114 29 117 0 3 -16 5 -35 6 -24 0 -36 -5 -39 -15 -3 -9 -10
-35 -16 -58 l-11 -43 -64 0 -64 0 14 48 c20 65 20 67 -20 68 -33 0 -35 -2 -46
-48 -11 -42 -16 -48 -45 -54 -54 -10 -69 -2 -68 34 2 30 0 32 -32 32 -19 0
-34 3 -34 8 -1 4 16 62 37 129 l38 123 119 0 119 0 -6 -32z m282 16 c2 -2 -1
-20 -6 -41 -10 -43 -31 -50 -108 -38 l-42 6 10 39 c10 35 14 39 46 42 34 4 92
-1 100 -8z m3544 -123 c3 -16 9 -40 13 -55 6 -26 6 -26 -55 -26 -42 0 -61 4
-61 13 -1 6 -5 31 -9 55 l-8 42 57 0 c55 0 58 -1 63 -29z m-4083 -140 c0 -5
-7 -28 -15 -51 -26 -75 -23 -80 45 -80 52 0 59 -2 53 -17 -11 -33 -36 -43
-107 -43 -39 0 -76 4 -83 8 -8 5 -3 32 18 100 29 89 31 92 59 92 17 0 30 -4
30 -9z m2784 -33 c3 -13 6 -51 6 -84 0 -56 -2 -62 -22 -68 -29 -7 -86 -6 -115
2 -22 7 -22 8 -8 36 8 15 15 50 15 75 0 26 3 51 7 54 3 4 30 7 59 7 45 0 52
-3 58 -22z m1764 -70 c12 -39 20 -73 17 -76 -9 -9 -104 -14 -148 -8 -44 7 -44
7 -60 66 -27 94 -30 90 76 90 l94 0 21 -72z m-993 33 c38 -6 40 -8 49 -54 4
-27 5 -51 1 -55 -11 -11 -173 -8 -183 3 -6 6 -13 36 -17 68 l-7 59 59 -7 c32
-4 76 -10 98 -14z m-3456 -21 c-10 -28 -15 -30 -60 -30 -45 0 -49 2 -49 24 0
29 10 34 72 35 l47 1 -10 -30z m1491 -34 c0 -59 -11 -71 -56 -60 -19 5 -24 13
-24 38 0 61 9 76 46 76 l34 0 0 -54z m390 0 l0 -54 -36 -6 c-20 -4 -49 -4 -65
-1 -27 6 -30 11 -27 38 3 28 7 32 36 35 19 2 38 11 45 23 6 10 20 19 29 19 15
0 18 -9 18 -54z m2114 -372 c14 -15 26 -31 26 -36 0 -5 5 -6 10 -3 6 3 10 0
10 -7 0 -7 3 -30 6 -50 l7 -38 -161 0 -160 0 60 63 c33 34 72 70 87 79 39 26
83 23 115 -8z m84 -155 c-5 -20 58 -50 115 -56 69 -7 157 13 158 35 0 13 2 13
9 -3 5 -11 9 -77 9 -147 l1 -128 -160 0 -160 0 0 155 c0 131 2 155 15 155 8 0
14 -5 13 -11z m-2908 -166 l0 -133 160 0 159 0 3 128 3 127 155 0 155 0 3
-127 3 -128 -161 0 -160 0 0 -160 0 -160 160 0 160 0 0 -160 0 -159 -156 -3
c-86 -2 -158 0 -161 5 -2 4 -5 76 -6 160 l-2 152 -157 3 -157 3 -3 157 -3 157
-315 2 -315 2 -3 118 c-4 166 -6 161 70 151 63 -8 386 -1 495 11 36 4 61 3 65
-4 4 -5 8 -70 8 -142z m1600 127 c230 0 299 3 303 13 2 6 7 -4 11 -23 9 -45 3
-256 -6 -252 -5 1 -147 2 -318 2 l-310 0 0 118 c0 110 8 182 18 154 3 -9 76
-12 302 -12z m-653 -232 c-2 -18 -4 -6 -4 27 0 33 2 48 4 33 2 -15 2 -42 0
-60z m1630 -270 c-1 -46 -3 -9 -3 82 0 91 2 128 3 83 2 -46 2 -120 0 -165z
m-3520 -310 c-1 -46 -3 -11 -3 77 0 88 2 125 3 83 2 -42 2 -114 0 -160z m2863
-248 l0 -160 -160 0 -160 0 -2 -160 -3 -161 -315 0 -315 0 -3 161 -2 160 320
0 320 0 0 160 0 160 160 0 160 0 0 -160z m-2957 143 c-46 -2 -120 -2 -165 0
-46 1 -9 3 82 3 91 0 128 -2 83 -3z m1915 -290 c-42 -2 -114 -2 -160 0 -46 1
-11 3 77 3 88 0 125 -2 83 -3z m1290 -30 c-42 -2 -114 -2 -160 0 -46 1 -11 3
77 3 88 0 125 -2 83 -3z"/>
<path d="M4180 4640 l0 -140 140 0 140 0 0 140 0 140 -140 0 -140 0 0 -140z"/>
<path d="M3098 2833 c-3 -4 -3 -32 0 -60 4 -53 4 -53 38 -53 l35 0 -3 58 c-3
56 -4 57 -35 60 -17 2 -33 -1 -35 -5z"/>
<path d="M3555 2843 c-29 -4 -31 -6 -27 -38 4 -33 6 -35 43 -35 21 0 39 -4 39
-10 0 -5 -7 -10 -15 -10 -11 0 -15 -11 -15 -39 0 -55 8 -71 36 -71 17 0 22 4
18 15 -5 12 2 15 30 15 25 0 36 -4 36 -15 0 -9 9 -15 25 -15 27 0 29 8 19 73
-5 27 -11 37 -25 37 -11 0 -19 5 -19 10 0 6 16 10 35 10 33 0 35 2 35 34 0 42
-6 47 -53 39 -33 -5 -37 -9 -37 -34 0 -25 -4 -29 -29 -29 -29 0 -41 14 -41 51
0 10 -6 18 -12 17 -7 0 -27 -3 -43 -5z"/>
<path d="M3288 4143 c39 -2 105 -2 145 0 39 1 7 3 -73 3 -80 0 -112 -2 -72 -3z"/>
</g>
</svg>
